<svg width="41" height="41" viewBox="0 0 41 41" fill="none" xmlns="http://www.w3.org/2000/svg">
<path d="M18.5031 21.2739V30.5679H22.2441V21.2749H25.3641L25.8311 17.6528H22.2441V15.3398C22.2441 14.292 22.5351 13.5769 24.0391 13.5769L25.9571 13.5759V10.3359C25.6251 10.292 24.4871 10.1929 23.1621 10.1929C20.3961 10.1929 18.5031 11.8809 18.5031 14.981V17.6519H15.3751V21.2739H18.5031Z" fill="white"/>
<path fill-rule="evenodd" clip-rule="evenodd" d="M20.6661 38.6246C30.7421 38.6246 38.9103 30.4564 38.9103 20.3804C38.9103 10.3044 30.7421 2.13623 20.6661 2.13623C10.5901 2.13623 2.42188 10.3044 2.42188 20.3804C2.42188 30.4564 10.5901 38.6246 20.6661 38.6246ZM20.6661 40.6246C31.8466 40.6246 40.9103 31.561 40.9103 20.3804C40.9103 9.19987 31.8466 0.13623 20.6661 0.13623C9.48551 0.13623 0.421875 9.19987 0.421875 20.3804C0.421875 31.561 9.48551 40.6246 20.6661 40.6246Z" fill="white"/>
</svg>
