<svg width="41" height="41" viewBox="0 0 41 41" fill="none" xmlns="http://www.w3.org/2000/svg">
<path d="M20.306 12.4659C22.8838 12.4659 23.1896 12.4755 24.2082 12.5222C26.8246 12.6413 28.0468 13.8828 28.1659 16.4799C28.2125 17.4977 28.2214 17.8035 28.2214 20.3813C28.2214 22.96 28.2117 23.265 28.1659 24.2827C28.046 26.8775 26.8271 28.1214 24.2082 28.2405C23.1896 28.2871 22.8854 28.2968 20.306 28.2968C17.7281 28.2968 17.4223 28.2871 16.4045 28.2405C13.7816 28.1206 12.5659 26.8735 12.4468 24.2819C12.4002 23.2641 12.3905 22.9592 12.3905 20.3805C12.3905 17.8027 12.401 17.4977 12.4468 16.4791C12.5667 13.8828 13.7856 12.6405 16.4045 12.5214C17.4231 12.4755 17.7281 12.4659 20.306 12.4659ZM20.306 10.7256C17.6838 10.7256 17.3556 10.7369 16.3257 10.7835C12.8193 10.9444 10.8707 12.8899 10.7097 16.3995C10.6623 17.4301 10.651 17.7584 10.651 20.3805C10.651 23.0027 10.6623 23.3317 10.7089 24.3616C10.8698 27.8679 12.8153 29.8166 16.3249 29.9776C17.3556 30.0242 17.6838 30.0355 20.306 30.0355C22.9281 30.0355 23.2571 30.0242 24.287 29.9776C27.7901 29.8166 29.7437 27.8712 29.9022 24.3616C29.9496 23.3317 29.9609 23.0027 29.9609 20.3805C29.9609 17.7584 29.9496 17.4301 29.903 16.4003C29.7453 12.8971 27.7974 10.9452 24.2878 10.7843C23.2571 10.7368 22.9281 10.7256 20.306 10.7256ZM20.306 15.4227C19.6549 15.4227 19.0102 15.551 18.4087 15.8001C17.8072 16.0493 17.2606 16.4145 16.8002 16.8748C16.3399 17.3352 15.9747 17.8818 15.7255 18.4833C15.4764 19.0848 15.3481 19.7295 15.3481 20.3805C15.3481 21.0316 15.4764 21.6763 15.7255 22.2778C15.9747 22.8793 16.3399 23.4259 16.8002 23.8862C17.2606 24.3466 17.8072 24.7118 18.4087 24.961C19.0102 25.2101 19.6549 25.3384 20.306 25.3384C21.6208 25.3384 22.8819 24.816 23.8117 23.8862C24.7414 22.9565 25.2638 21.6954 25.2638 20.3805C25.2638 19.0656 24.7414 17.8046 23.8117 16.8748C22.8819 15.9451 21.6208 15.4227 20.306 15.4227ZM20.306 23.5989C19.4524 23.5989 18.6338 23.2598 18.0303 22.6562C17.4267 22.0527 17.0876 21.2341 17.0876 20.3805C17.0876 19.527 17.4267 18.7084 18.0303 18.1048C18.6338 17.5013 19.4524 17.1622 20.306 17.1622C21.1595 17.1622 21.9781 17.5013 22.5816 18.1048C23.1852 18.7084 23.5243 19.527 23.5243 20.3805C23.5243 21.2341 23.1852 22.0527 22.5816 22.6562C21.9781 23.2598 21.1595 23.5989 20.306 23.5989ZM25.4601 14.0686C25.3079 14.0686 25.1572 14.0986 25.0166 14.1568C24.8759 14.2151 24.7482 14.3005 24.6405 14.4081C24.5329 14.5157 24.4476 14.6435 24.3893 14.7841C24.3311 14.9247 24.3011 15.0754 24.3011 15.2276C24.3011 15.3798 24.3311 15.5305 24.3893 15.6711C24.4476 15.8118 24.5329 15.9395 24.6405 16.0471C24.7482 16.1548 24.8759 16.2401 25.0166 16.2984C25.1572 16.3566 25.3079 16.3866 25.4601 16.3866C25.7675 16.3866 26.0623 16.2645 26.2796 16.0471C26.497 15.8298 26.6191 15.535 26.6191 15.2276C26.6191 14.9202 26.497 14.6254 26.2796 14.4081C26.0623 14.1907 25.7675 14.0686 25.4601 14.0686Z" fill="white"/>
<path fill-rule="evenodd" clip-rule="evenodd" d="M20.3059 38.6246C30.3819 38.6246 38.5501 30.4564 38.5501 20.3804C38.5501 10.3044 30.3819 2.13623 20.3059 2.13623C10.2299 2.13623 2.06171 10.3044 2.06171 20.3804C2.06171 30.4564 10.2299 38.6246 20.3059 38.6246ZM20.3059 40.6246C31.4865 40.6246 40.5501 31.561 40.5501 20.3804C40.5501 9.19987 31.4865 0.13623 20.3059 0.13623C9.12534 0.13623 0.0617065 9.19987 0.0617065 20.3804C0.0617065 31.561 9.12534 40.6246 20.3059 40.6246Z" fill="white"/>
</svg>
