<svg width="167" height="49" viewBox="0 0 167 49" fill="none" xmlns="http://www.w3.org/2000/svg">
<path fill-rule="evenodd" clip-rule="evenodd" d="M0.114166 14.31V14.433L28.0642 27.563L56.1142 14.389V14.356L28.0642 1.17998L0.114166 14.31ZM10.1912 14.372L28.0642 5.97498L45.9412 14.372L28.0642 22.768L10.1912 14.372ZM28.0642 32.663L0.114166 19.73V24.514L28.0642 37.478L56.1142 24.469V19.685L28.0642 32.663ZM28.0642 42.366L0.114166 29.43V34.213L28.0642 47.18L56.1142 34.17V29.386L28.0642 42.366Z" fill="white"/>
<path fill-rule="evenodd" clip-rule="evenodd" d="M159.674 24.332C159.691 22.2668 158.918 20.2732 157.513 18.759C156.853 18.0508 156.057 17.482 155.173 17.086C154.277 16.6841 153.305 16.4791 152.323 16.485C151.313 16.485 150.362 16.685 149.471 17.086C148.587 17.4819 147.792 18.0508 147.131 18.759C145.727 20.2737 144.954 22.2676 144.971 24.333C144.955 26.398 145.727 28.3915 147.131 29.906C147.792 30.6138 148.587 31.1823 149.471 31.578C150.367 31.9804 151.34 32.1857 152.322 32.18C153.332 32.18 154.282 31.98 155.174 31.578C156.058 31.1822 156.853 30.6137 157.513 29.906C158.918 28.3913 159.691 26.3974 159.674 24.332ZM166.089 24.332C166.089 26.264 165.732 28.055 165.019 29.705C164.335 31.3136 163.335 32.7688 162.079 33.985C160.832 35.19 159.369 36.141 157.691 36.839C156.013 37.538 154.223 37.887 152.322 37.887C150.422 37.887 148.639 37.538 146.976 36.839C145.352 36.1659 143.87 35.1899 142.61 33.963C141.357 32.736 140.358 31.2742 139.67 29.661C138.957 28.011 138.6 26.235 138.6 24.332C138.6 22.459 138.964 20.698 139.692 19.048C140.397 17.4317 141.402 15.9641 142.654 14.723C143.909 13.4844 145.392 12.5003 147.021 11.825C148.7 11.1233 150.503 10.7669 152.322 10.777C154.223 10.777 156.012 11.127 157.691 11.825C159.369 12.523 160.831 13.475 162.079 14.679C163.327 15.883 164.307 17.317 165.019 18.981C165.732 20.646 166.089 22.43 166.089 24.332ZM136.372 37.085C135.822 37.3381 135.248 37.5325 134.657 37.665C134.019 37.813 133.357 37.887 132.675 37.887C131.749 37.8903 130.826 37.7627 129.935 37.508C129.09 37.272 128.306 36.8535 127.64 36.282C126.987 35.717 126.467 34.982 126.08 34.075C125.695 33.168 125.502 32.075 125.502 30.798V0.208984H132.051V29.683C132.051 30.753 132.266 31.489 132.697 31.89C133.127 32.291 133.64 32.492 134.234 32.492C134.976 32.492 135.689 32.269 136.372 31.823V37.085ZM122.606 11.4L111.022 42.034C110.161 44.323 109.032 45.973 107.636 46.984C106.24 47.994 104.576 48.499 102.646 48.499C102.349 48.499 102.023 48.477 101.666 48.433C101.32 48.3904 100.978 48.3232 100.641 48.232L98.5032 42.257C99.0038 42.4931 99.5262 42.6796 100.063 42.814C100.597 42.948 101.102 43.015 101.577 43.015C102.587 43.015 103.507 42.785 104.339 42.324C105.171 41.864 105.809 41.009 106.255 39.76L107.146 37.174L97.2112 11.401H104.206L110.131 27.989L115.701 11.401L122.606 11.4ZM95.6522 7.52198H78.9002V15.816H95.4292V21.434H78.8992V37.218H72.1292V1.59198H95.6532L95.6522 7.52198Z" fill="white"/>
</svg>
