<svg width="42" height="41" viewBox="0 0 42 41" fill="none" xmlns="http://www.w3.org/2000/svg">
<path d="M30.6137 14.392C29.8907 14.7124 29.1237 14.9226 28.3383 15.0155C29.1659 14.5208 29.7851 13.7418 30.0802 12.8238C29.3025 13.2853 28.4516 13.6105 27.5643 13.7853C27.1938 13.3898 26.7459 13.0746 26.2484 12.8594C25.751 12.6442 25.2147 12.5335 24.6727 12.5342C22.1149 12.5342 20.2354 14.9206 20.8131 17.3979C19.238 17.319 17.6972 16.9098 16.2905 16.1968C14.8839 15.4838 13.6429 14.4829 12.6482 13.2591C12.1417 14.1313 11.9865 15.1637 12.2141 16.1463C12.4418 17.1288 13.0352 17.9878 13.8736 18.5484C13.2448 18.5286 12.6299 18.3586 12.0802 18.0528C12.0367 19.888 13.3522 21.605 15.2575 21.9872C14.6739 22.1457 14.0619 22.1688 13.4681 22.0548C13.7211 22.842 14.214 23.5303 14.8776 24.0236C15.5412 24.5168 16.3424 24.7903 17.1692 24.8056C15.5087 26.1081 13.3991 26.6985 11.3038 26.447C13.1153 27.6108 15.2235 28.2287 17.3767 28.2267C24.7322 28.2267 28.8878 22.0145 28.6368 16.4428C29.4122 15.8819 30.0816 15.1874 30.6137 14.392Z" fill="white"/>
<path fill-rule="evenodd" clip-rule="evenodd" d="M20.9587 38.6246C31.0347 38.6246 39.2029 30.4564 39.2029 20.3804C39.2029 10.3044 31.0347 2.13623 20.9587 2.13623C10.8827 2.13623 2.71448 10.3044 2.71448 20.3804C2.71448 30.4564 10.8827 38.6246 20.9587 38.6246ZM20.9587 40.6246C32.1392 40.6246 41.2029 31.561 41.2029 20.3804C41.2029 9.19987 32.1392 0.13623 20.9587 0.13623C9.77812 0.13623 0.714478 9.19987 0.714478 20.3804C0.714478 31.561 9.77812 40.6246 20.9587 40.6246Z" fill="white"/>
</svg>
